{"title":"The November Man 2014 CAM XviD AC3 SHIVERMITIMBER","uid":10998417,"size":1490666367,"categoryP":"video","categoryS":"movies","magnet":"?xt=urn:btih:c50886d238f1d202abc1fbc847f5c1c548b518b4&amp;dn=The+November+Man+2014+CAM+XviD+AC3+SHIVERMITIMBER&amp;tr=udp%3A%2F%2Ftracker.openbittorrent.com%3A80&amp;tr=udp%3A%2F%2Fopen.demonii.com%3A1337&amp;tr=udp%3A%2F%2Ftracker.coppersurfer.tk%3A6969&amp;tr=udp%3A%2F%2Fexodus.desync.com%3A6969","seeders":2,"leechers":0,"uploader":"ali1997a","files":4,"time":1410103108,"description":"SilverTorrent - Clean And Verified Torrents Download\n &lt;a href=&quot;\nhttp://i.imgur.com/ky6BGho.png&quot; rel=&quot;nofollow&quot; target=&quot;_NEW&quot;&gt;\nhttp://i.imgur.com/ky6BGho.png&lt;/a&gt;\n &lt;a href=&quot;\nhttp://i.imgur.com/q3Xc7y9.jpg&quot; rel=&quot;nofollow&quot; target=&quot;_NEW&quot;&gt;\nhttp://i.imgur.com/q3Xc7y9.jpg&lt;/a&gt;\n\nThe November Man 2014 CAM XviD AC3 SHIVERMITIMBER\n\niMDB:http://www.imdb.com/title/tt2402157/\n\nFormat                                   : AVI\nFormat/Info                              : Audio Video Interleave\nFile size                                : 1.36 GiB\nDuration                                 : 1h 41mn\nOverall bit rate                         : 1 912 Kbps\n\nVideo\nID                                       : 0\nFormat                                   : MPEG-4 Visual\nFormat profile                           : Advanced Simple@L5\nFormat settings, BVOP                    : 2\nFormat settings, QPel                    : No\nFormat settings, GMC                     : No warppoints\nFormat settings, Matrix                  : Default (H.263)\nMuxing mode                              : Packed bitstream\nCodec ID                                 : XVID\nCodec ID/Hint                            : XviD\nDuration                                 : 1h 41mn\nBit rate                                 : 1 648 Kbps\nWidth                                    : 720 pixels\nHeight                                   : 280 pixels\nDisplay aspect ratio                     : 2.571\nFrame rate                               : 24.000 fps\nColor space                              : YUV\nChroma subsampling                       : 4:2:0\nBit depth                                : 8 bits\nScan type                                : Progressive\nCompression mode                         : Lossy\nBits/(Pixel*Frame)                       : 0.341\nStream size                              : 1.17 GiB (86%)\nWriting library                          : XviD 65\n\nAudio\nID                                       : 1\nFormat                                   : AC-3\nFormat/Info                              : Audio Coding 3\nMode extension                           : CM (complete main)\nFormat settings, Endianness              : Big\nCodec ID                                 : 2000\nDuration                                 : 1h 41mn\nBit rate mode                            : Constant\nBit rate                                 : 256 Kbps\nChannel(s)                               : 2 channels\nChannel positions                        : Front: L R\nSampling rate                            : 48.0 KHz\nBit depth                                : 16 bits\nCompression mode                         : Lossy\nStream size                              : 186 MiB (13%)\nAlignment                                : Aligned on interleaves\nInterleave, duration                     : 64 ms (1.54 video frames)\nInterleave, preload duration             : 192 ms\nTitle                                    : English\n &lt;a href=&quot;\nhttp://i.imgur.com/HFVHR2s.png&quot; rel=&quot;nofollow&quot; target=&quot;_NEW&quot;&gt;\nhttp://i.imgur.com/HFVHR2s.png&lt;/a&gt;\n &lt;a href=&quot;\nhttp://i.imgur.com/Q7s7vhQ.png&quot; rel=&quot;nofollow&quot; target=&quot;_NEW&quot;&gt;\nhttp://i.imgur.com/Q7s7vhQ.png&lt;/a&gt;\n &lt;a href=&quot;\nhttp://i.imgur.com/fM7gcWT.png&quot; rel=&quot;nofollow&quot; target=&quot;_NEW&quot;&gt;\nhttp://i.imgur.com/fM7gcWT.png&lt;/a&gt;\n &lt;a href=&quot;\nhttp://i.imgur.com/78wIrQX.png&quot; rel=&quot;nofollow&quot; target=&quot;_NEW&quot;&gt;\nhttp://i.imgur.com/78wIrQX.png&lt;/a&gt;","torrent":{"xt":"urn:btih:c50886d238f1d202abc1fbc847f5c1c548b518b4","amp;dn":"The+November+Man+2014+CAM+XviD+AC3+SHIVERMITIMBER","amp;tr":["udp%3A%2F%2Ftracker.openbittorrent.com%3A80","udp%3A%2F%2Fopen.demonii.com%3A1337","udp%3A%2F%2Ftracker.coppersurfer.tk%3A6969","udp%3A%2F%2Fexodus.desync.com%3A6969"],"infoHash":"c50886d238f1d202abc1fbc847f5c1c548b518b4","infoHashBuffer":{"type":"Buffer","data":[197,8,134,210,56,241,210,2,171,193,251,200,71,245,193,197,72,181,24,180]},"announce":[],"urlList":[]}}